<?xml version="1.0" standalone="no"?>
<!DOCTYPE svg PUBLIC "-//W3C//DTD SVG 1.1//EN" "http://www.w3.org/Graphics/SVG/1.1/DTD/svg11.dtd" >
<svg xmlns="http://www.w3.org/2000/svg">
<metadata></metadata>
<defs>
<font id="haim_reloadedregular" horiz-adv-x="1187" >
<font-face units-per-em="2048" ascent="1434" descent="-614" />
<missing-glyph horiz-adv-x="649" />
<glyph horiz-adv-x="2048" />
<glyph horiz-adv-x="2048" />
<glyph unicode="&#xd;" horiz-adv-x="649" />
<glyph unicode=" "  horiz-adv-x="649" />
<glyph unicode="&#x09;" horiz-adv-x="649" />
<glyph unicode="&#xa0;" horiz-adv-x="649" />
<glyph unicode="!" horiz-adv-x="614" d="M154 0v334h307v-334h-307zM154 387v842h307v-842h-307z" />
<glyph unicode="&#x22;" horiz-adv-x="1075" d="M88 723l199 598l291 -98l-199 -598zM498 723l198 598l291 -98l-199 -598z" />
<glyph unicode="#" horiz-adv-x="1484" d="M154 205v307h108l35 205h-92v307h143l37 227l303 -49l-29 -178h273l43 231l303 -57l-35 -174h88v-307h-145l-39 -205h82v-307h-142l-43 -232l-303 58l33 174h-252l-37 -228l-303 50l29 178h-57zM573 512h261l38 205h-264z" />
<glyph unicode="$" horiz-adv-x="1167" d="M72 297v164h307v-127q23 -10 51 -19v181q-358 127 -358 405q0 289 358 346v187h307v-193q150 -35 246 -113q113 -94 113 -227v-153h-308v141q-16 20 -51 35v-176q154 -57 248 -164q111 -123 111 -287q0 -309 -359 -313v-240h-307v258q-358 61 -358 295zM379 895 q12 -17 51 -37v78q-20 -6 -30.5 -11t-18.5 -12q-2 -20 -2 -18zM737 291q29 2 51 4v2q0 51 -51 86v-92z" />
<glyph unicode="%" horiz-adv-x="1792" d="M154 870q0 141 108.5 250t249.5 109t249.5 -109.5t108.5 -249.5v-4l256 420l263 -160l-279 -458q82 49 170 49q141 0 249.5 -109t108.5 -250t-108.5 -249.5t-249.5 -108.5t-249.5 109.5t-108.5 248.5v4l-256 -419l-263 159l279 459q-82 -49 -170 -49q-141 0 -249.5 108.5 t-108.5 249.5zM461 870q0 -12 19.5 -31.5t31.5 -19.5t31.5 19.5t19.5 31.5t-19.5 32t-31.5 20t-31.5 -19.5t-19.5 -32.5zM1229 358q0 -12 19.5 -31.5t31.5 -19.5t31.5 19.5t19.5 31.5t-19.5 32t-31.5 20t-31.5 -19.5t-19.5 -32.5z" />
<glyph unicode="&#x26;" horiz-adv-x="1402" d="M61 358q0 147 193 275q-90 111 -90 186q0 184 88 293q94 117 270 117t271 -117q88 -109 88 -293q0 -123 -129 -227q59 -43 129 -90q51 70 51 112v154h307v-154q0 -135 -106 -286q193 -131 268 -181l-168 -258q-92 59 -332 215q-164 -104 -328 -104q-512 0 -512 358z M373 332q45 -25 200 -25q18 0 37 4q-72 53 -133 105q-67 -43 -104 -78v-6zM471 819q0 -8 29 -35q45 31 73 60q-4 53 -16 71q-12 6 -35 7q-23 0 -33 -4q-18 -27 -18 -99z" />
<glyph unicode="'" horiz-adv-x="665" d="M88 723l199 598l291 -98l-199 -598z" />
<glyph unicode="(" horiz-adv-x="737" d="M154 614q0 145 49 301q55 174 149 269l109 108l217 -217l-109 -108q-109 -145 -108 -353q0 -244 108 -352l109 -108l-217 -217l-109 108q-8 8 -39 45q-160 213 -159 524z" />
<glyph unicode=")" horiz-adv-x="737" d="M90 154l109 108q109 145 108 352q0 244 -108 353l-109 108l217 217l109 -108q8 -8 39 -45q160 -213 159 -525q0 -145 -49 -301q-55 -174 -149 -268l-109 -108z" />
<glyph unicode="*" horiz-adv-x="1085" d="M113 621l98 290l250 -84v248h307v-248l250 84l98 -290l-239 -80l210 -254l-237 -197l-221 268l-176 -264l-256 170l178 268z" />
<glyph unicode="+" d="M154 461v307h358v358h307v-358h359v-307h-359v-359h-307v359h-358z" />
<glyph unicode="," horiz-adv-x="665" d="M10 -250l201 598l291 -98l-201 -598z" />
<glyph unicode="-" d="M154 461v307h1024v-307h-1024z" />
<glyph unicode="." horiz-adv-x="614" d="M154 0v334h307v-334h-307z" />
<glyph unicode="/" horiz-adv-x="1177" d="M96 102l723 1184l262 -160l-723 -1183z" />
<glyph unicode="0" horiz-adv-x="1316" d="M61 625q0 190 84 344q148 270 506 270q356 0 504 -270q84 -154 84 -344q0 -193 -84 -351q-147 -274 -504 -274q-324 0 -483 270q-106 178 -107 355zM369 625q0 -98 59 -193q80 -125 223 -125q281 0 281 318q0 307 -281 307q-283 0 -282 -307z" />
<glyph unicode="1" horiz-adv-x="815" d="M20 922l670 362v-1282h-307v766l-217 -117z" />
<glyph unicode="2" horiz-adv-x="1239" d="M45 709l29 151q10 29 22 66q59 150 189.5 231.5t298.5 81.5q268 0 428 -160q135 -135 135 -301q0 -96 -105 -196q-78 -76 -223 -162q-100 -55 -203 -113h531v-307h-1075v154q0 131 153 264q100 88 326.5 216t279.5 173q-51 125 -247 125q-156 0 -207 -133l-31 -150z" />
<glyph unicode="3" horiz-adv-x="1210" d="M63 35l64 301l152 -33q172 -33 319 -29q211 8 211 84q0 92 -229 146q-45 10 -289 41l246 377h-445v307h1010l-305 -471q319 -127 319 -400q0 -213 -180 -311q-143 -80 -385 -80q-170 0 -338 37z" />
<glyph unicode="4" d="M18 307l388 967l284 -113l-217 -547h191v308h307v-308h114v-307h-114v-307h-307v307h-646z" />
<glyph unicode="5" horiz-adv-x="1177" d="M68 563l208 666h830v-307h-604l-21 -66q625 -74 625 -446q0 -231 -262 -336q-190 -78 -486 -78q-70 0 -133 4l-153 12l22 305l152 -10q176 -10 325 10q84 12 125 27q72 23 103 66q0 92 -330 131q-186 23 -401 22z" />
<glyph unicode="6" horiz-adv-x="1167" d="M72 461q0 168 137 391q111 176 266 332l109 108l217 -217l-109 -108q-49 -49 -104 -117q209 0 358.5 -127t149.5 -313q0 -227 -191 -336q-127 -74 -270 -74q-219 0 -381 115q-182 131 -182 346zM379 461q0 -76 94 -119q76 -35 162 -35q72 0 112.5 29t40.5 74 q0 121 -155 120q-68 0 -150 -22q-69 -20 -104 -43v-4z" />
<glyph unicode="7" horiz-adv-x="1310" d="M92 922v307h1057l-184 -461h151v-307h-274l-203 -506l-285 113l156 393h-162v307h285l61 154h-602z" />
<glyph unicode="8" horiz-adv-x="1167" d="M72 410q0 145 149 239q-98 94 -98 232q0 154 96 249q109 109 313 109q193 0 324 -94q137 -100 137 -264q0 -129 -78 -217q180 -96 181 -254q0 -410 -512 -410t-512 410zM381 389q8 -59 76 -76q31 -6 127 -6q94 0 125 6q68 16 77 72q-43 29 -217 88q-86 -31 -112 -41 q-53 -23 -76 -43zM430 887q39 -55 137 -90q84 35 119 84q-8 8 -14 18q-45 33 -140 33q-57 0 -98 -25q-4 -12 -4 -20z" />
<glyph unicode="9" horiz-adv-x="1167" d="M72 829q0 227 190 336q127 74 270 74q219 0 381 -115q182 -131 183 -346q0 -168 -138 -395q-113 -184 -266 -338l-108 -108l-217 217l108 118q23 23 105 117q-209 0 -358.5 127t-149.5 313zM379 829q0 -121 156 -120q68 0 149 22q69 20 104 43v4q0 76 -94 119 q-76 35 -162 35q-72 0 -112.5 -29t-40.5 -74z" />
<glyph unicode=":" horiz-adv-x="614" d="M154 0v334h307v-334h-307zM154 768v334h307v-334h-307z" />
<glyph unicode=";" horiz-adv-x="614" d="M10 -250l201 598l291 -98l-201 -598zM154 768v334h307v-334h-307z" />
<glyph unicode="&#x3c;" horiz-adv-x="1157" d="M23 614l813 521l165 -261l-409 -260l409 -260l-165 -260z" />
<glyph unicode="=" d="M82 256v307h1024v-307h-1024zM82 666v307h1024v-307h-1024z" />
<glyph unicode="&#x3e;" horiz-adv-x="1157" d="M166 354l409 260l-409 260l166 261l813 -521l-813 -520z" />
<glyph unicode="?" horiz-adv-x="1126" d="M74 811l67 139q6 8 29 47q162 242 416 242q207 0 334 -109.5t127 -300.5q-1 -309 -308 -360v-80h-307v146q0 123 86 178q51 33 191 61q12 4 26 10q4 14 4 45q0 102 -153 103q-109 0 -170 -121l-68 -137zM432 0v334h307v-334h-307z" />
<glyph unicode="@" horiz-adv-x="1935" d="M72 512q0 295 262 557t557 262q305 0 602 -168q371 -209 371 -549q0 -412 -219 -565q-168 -119 -547 -119q-236 0 -399.5 132.5t-163.5 328.5q0 231 141 350q131 111 371 111q193 0 280 -141q66 -100 66 -242q0 -104 -27 -213q109 25 149.5 102.5t40.5 255.5 q0 154 -215 282t-450 128q-166 0 -339 -173t-173 -339q0 -666 563 -666h154v-307h-154q-498 0 -719 367q-152 252 -151 606zM842 391q0 -41 41 -82q55 -55 157 -67l15 45q31 92 30 168q0 90 -38 90q-115 0 -154 -25q-51 -31 -51 -129z" />
<glyph unicode="[" horiz-adv-x="768" d="M154 -256v1587h460v-307h-153v-973h153v-307h-460z" />
<glyph unicode="\" horiz-adv-x="1177" d="M96 1126l262 160l723 -1184l-262 -159z" />
<glyph unicode="]" horiz-adv-x="768" d="M154 51h153v973h-153v307h460v-1587h-460v307z" />
<glyph unicode="^" horiz-adv-x="1126" d="M92 733l471 658l471 -658l-250 -180l-221 309l-221 -309z" />
<glyph unicode="_" horiz-adv-x="1331" d="M307 154h717h-717z" />
<glyph unicode="{" horiz-adv-x="972" d="M0 614q78 78 199 211q49 61 69 97q0 195 114 329.5t296 134.5q37 0 76 -6l151 -24l-49 -303l-151 24h-19q-111 -2 -111 -155q0 -121 -135 -289l-16 -19l16 -18q135 -168 135 -289q0 -158 101 -157q14 0 29 2l151 24l49 -303l-151 -25q-33 -6 -78 -4q-188 4 -301 136 q-106 123 -107 317q-27 76 -268 317z" />
<glyph unicode="|" horiz-adv-x="614" d="M154 -256v1587h307v-1587h-307z" />
<glyph unicode="}" horiz-adv-x="972" d="M16 -127l50 303l151 -24h19q111 2 110 155q0 121 135 289l17 18l-17 19q-135 168 -135 289q0 158 -100 157q-14 0 -29 -2l-151 -24l-50 303l152 24q33 6 78 4q188 -4 301 -135q106 -123 106 -317q27 -76 269 -318q-78 -78 -199 -211q-49 -61 -70 -96q0 -195 -110 -327 q-117 -137 -299 -138q-37 0 -76 6z" />
<glyph unicode="~" horiz-adv-x="1433" d="M154 358v154q0 25 6 57q23 135 117 218t235 83q119 0 221 -79q55 -41 144 -148q66 -80 96 -80q8 43 2 72l-29 151l301 60l31 -150q2 -12 6 -61q10 -160 -67 -264q-84 -115 -244 -115q-119 0 -221 80q-55 41 -144 147q-66 80 -96 80q-16 0 -41 -18q-6 -10 -10 -33v-154 h-307z" />
<glyph unicode="&#xad;" d="M154 461v307h1024v-307h-1024z" />
<glyph unicode="&#x2000;" horiz-adv-x="717" />
<glyph unicode="&#x2001;" horiz-adv-x="1434" />
<glyph unicode="&#x2002;" horiz-adv-x="717" />
<glyph unicode="&#x2003;" horiz-adv-x="1434" />
<glyph unicode="&#x2004;" horiz-adv-x="478" />
<glyph unicode="&#x2005;" horiz-adv-x="358" />
<glyph unicode="&#x2006;" horiz-adv-x="239" />
<glyph unicode="&#x2007;" horiz-adv-x="239" />
<glyph unicode="&#x2008;" horiz-adv-x="179" />
<glyph unicode="&#x2009;" horiz-adv-x="286" />
<glyph unicode="&#x200a;" horiz-adv-x="79" />
<glyph unicode="&#x2010;" d="M154 461v307h1024v-307h-1024z" />
<glyph unicode="&#x2011;" d="M154 461v307h1024v-307h-1024z" />
<glyph unicode="&#x2012;" d="M154 461v307h1024v-307h-1024z" />
<glyph unicode="&#x2013;" d="M154 461v307h1024v-307h-1024z" />
<glyph unicode="&#x2014;" horiz-adv-x="2211" d="M154 461v307h2048v-307h-2048z" />
<glyph unicode="&#x202f;" horiz-adv-x="286" />
<glyph unicode="&#x205f;" horiz-adv-x="358" />
<glyph unicode="&#xe000;" horiz-adv-x="1024" d="M0 0z" />
</font>
</defs>
</svg>
