<?xml version="1.0" standalone="no"?>
<!DOCTYPE svg PUBLIC "-//W3C//DTD SVG 1.1//EN" "http://www.w3.org/Graphics/SVG/1.1/DTD/svg11.dtd" >
<svg xmlns="http://www.w3.org/2000/svg">
<metadata></metadata>
<defs>
<font id="chocobold" horiz-adv-x="864" >
<font-face units-per-em="2048" ascent="1638" descent="-410" />
<missing-glyph horiz-adv-x="409" />
<glyph horiz-adv-x="2048" />
<glyph horiz-adv-x="2048" />
<glyph unicode="&#xd;" horiz-adv-x="409" />
<glyph unicode=" "  horiz-adv-x="409" />
<glyph unicode="&#x09;" horiz-adv-x="409" />
<glyph unicode="&#xa0;" horiz-adv-x="409" />
<glyph unicode="!" horiz-adv-x="581" d="M154 737q0 133 20 185q39 96 164 96q53 0 106 -33q61 -41 66 -102q14 -154 0 -408q-2 -53 -49 -90t-105 -37q-94 0 -147 64q-51 57 -51 153q0 29 -2 85.5t-2 86.5zM158 162q0 117 192 117q180 0 180 -125q0 -47 -51 -96.5t-121 -49.5q-201 0 -200 154z" />
<glyph unicode="&#x22;" horiz-adv-x="1003" d="M51 674q-10 45 72 186q90 158 184 158q43 0 111 -33q76 -39 86 -82q8 -39 -90 -192q-107 -166 -189 -166q-66 0 -125 63q-45 47 -49 66zM502 674q-10 45 71 186q92 158 185 158q43 0 110 -33q76 -39 86 -82q8 -39 -90 -192q-106 -166 -188 -166q-66 0 -125 63 q-45 47 -49 66z" />
<glyph unicode="#" horiz-adv-x="1294" d="M49 342q0 121 135 133q-6 0 113 0q25 0 12 74q-4 -10 -4 -14q-59 2 -74 4q-45 6 -67 24q-43 33 -43 111q0 70 47 95.5t106 27.5q-18 0 109 0q6 0 6 6q0 2 -6 21.5t-2 31.5q20 76 39 105q35 57 96 57q59 0 122.5 -50t63.5 -106q0 -25 -10 -67q23 2 51 4q49 111 66 137 q55 82 127 82q129 0 129 -125q0 -35 -10 -82q0 -2 2 -6q70 -2 126 -35t56 -92q0 -86 -74 -107q-27 -8 -149 -10h-6q-2 -10 -19 -67v-5q23 2 43 3q168 0 168 -132q0 -125 -272 -124q-25 0 -41 -62q-20 -86 -41 -115q-39 -61 -123 -61q-23 0 -47 4q-111 16 -111 102 q0 33 27 123q-20 0 -53 -2t-35 -2q-14 0 -12 -20q2 -35 2 -39q-20 -76 -41 -107q-37 -57 -107 -57q-188 0 -188 109q0 37 24 84l19 28q-8 2 -17 2q-12 -2 -24 -2q-51 0 -82 36t-31 85zM528 469q27 -4 191 0q6 0 15 21.5t9 35.5q0 8 -2 11q-10 2 -73 0q-111 -4 -118 -3 t-15 -30q-2 -6 0 -17q4 -12 4 -14q-2 -4 -11 -4z" />
<glyph unicode="$" horiz-adv-x="1122" d="M51 754q0 139 115 188q113 33 227 64v24.5v24.5q0 53 33 112q39 68 96 68q90 0 133 -78q37 -68 31 -156q76 -23 154 -43q78 -27 112 -69q45 -55 45 -160l-104 -65q-72 0 -125 35.5t-88 39.5q0 -23 4 -65q188 -68 264 -123q123 -92 123 -240q0 -154 -82 -213 q-51 -37 -221 -71q-63 -14 -63 -76v-16.5v-16.5q0 -66 -50 -102q-27 -18 -57 -19q59 0 -74 2q-66 0 -94 68q-20 49 -20 125q-137 31 -230 92q-117 78 -117 182q0 57 48.5 94t119.5 37l64 -30q23 -39 86 -80q0 90 -6 141q-166 59 -225 109q-98 78 -99 217zM358 715 q0 8 15.5 23.5t29.5 13.5q0 12 0 -43q18 0 -45 6zM682 289q27 4 59 22q41 25 41 49q0 27 -75 27q-4 2 -9 2q-14 -8 -14 -16q0 -2 6 -2q-2 -4 -2 -23q0 -10 -6 -59z" />
<glyph unicode="%" horiz-adv-x="1572" d="M51 731q0 45 45 107q55 76 131 75q15 0 29 -2q43 61 154 62q125 0 200 -92q66 -78 66 -174q0 -98 -82 -164t-191 -72q-139 -8 -245.5 74t-106.5 186zM346 711q0 -12 19 -13q29 0 41 39q0 -2 -3 -4q-23 0 -41 4l-4 -8zM350 139q0 4 269.5 366.5t315.5 421t60 68.5 q35 29 92 29q55 0 92.5 -45t37.5 -86t-256 -395q-240 -330 -316 -414t-127 -84q-55 0 -108 39q-59 43 -60 100zM913 242q0 115 76 196q84 94 228 94q127 0 214 -81.5t87 -188.5q0 -115 -123 -188q-104 -64 -219 -64q-113 0 -188 67.5t-75 164.5z" />
<glyph unicode="&#x26;" horiz-adv-x="1294" d="M51 303q0 74 72 146q39 39 139 108l17 10q-70 94 -70 131q0 53 59.5 144.5t112.5 126.5q74 49 225 49q94 0 180 -45q98 -53 99 -131q0 -174 -160 -328q25 -20 76 -59q76 121 145 120q57 0 109.5 -55t52.5 -96q0 -25 -43 -121l27 -18q152 -94 151 -176q0 -41 -35 -76 q-41 -37 -94 -37q-82 0 -225 102q-190 -111 -434 -110q-152 0 -271 82q-133 92 -133 233zM387 289q0 -25 25 -25q98 0 190 25l-33 28q-16 14 -39 41q-16 20 -20 21q-18 0 -70.5 -40t-52.5 -50zM502 715q-2 -4 20 -13q22 17 53 46q-23 0 -43 -3q-29 -6 -30 -30z" />
<glyph unicode="'" horiz-adv-x="552" d="M51 674q-10 45 72 186q90 158 184 158q43 0 111 -33q76 -39 86 -82q8 -39 -90 -192q-107 -166 -189 -166q-66 0 -125 63q-45 47 -49 66z" />
<glyph unicode="(" horiz-adv-x="598" d="M51 514q0 119 94 303q106 209 224 209q74 0 124 -49t50 -107q0 -26 -35 -75q-121 -182 -121 -295q0 -90 62 -176q53 -70 67 -99q27 -53 27 -114q0 -49 -42 -81t-98 -32q-59 0 -98 35q-117 109 -190 252q-63 131 -64 229z" />
<glyph unicode=")" horiz-adv-x="593" d="M51 111q0 86 79 194.5t75 216.5q-4 84 -79 207t-75 141q0 57 50.5 106.5t123.5 49.5q117 0 224 -209q94 -184 94 -303q0 -98 -66 -229q-71 -143 -188 -252q-41 -35 -99 -35q-55 0 -97 31.5t-42 81.5z" />
<glyph unicode="*" horiz-adv-x="897" d="M45 532q0 80 88 105q-37 43 -37 86q0 29 76 70t111 41q61 0 141 -95l6 -6l4 6q31 43 78 78q39 29 53 29q37 0 109 -35q86 -43 86 -90q0 -25 -35 -68q121 -10 121 -106q-2 -20 -8 -37q-10 -41 -33 -59q-12 -10 -43 -23q27 -33 26 -76q0 -47 -71 -84q-63 -31 -125 -30 q-68 0 -125 88q-51 -88 -123 -88q-61 0 -129 31.5t-68 68.5q0 20 19 51q-49 6 -85 49t-36 94z" />
<glyph unicode="+" horiz-adv-x="823" d="M51 524q0 131 133 133q10 0 31 -2h31h8q8 94 18 127q27 78 103 78q123 0 159.5 -43t34.5 -164q104 2 140 -10q57 -25 61 -111q6 -115 -137 -114q-25 0 -70 2q2 -49 2 -58q0 -66 -26 -94q-37 -37 -133 -35q-143 6 -144 140q0 18 2 41h-4q-209 -4 -209 110z" />
<glyph unicode="," horiz-adv-x="557" d="M49 -125q-8 45 72 186q92 158 184 158q45 0 111 -33q78 -39 86 -82q10 -39 -88 -192q-107 -166 -191 -166q-63 0 -125 64q-43 47 -49 65z" />
<glyph unicode="-" d="M51 506q-6 61 48.5 116.5t117.5 59.5q229 16 418 4q86 -6 127 -70q29 -45 45 -151q-35 -31 -53 -33q4 -18 -41.5 -51t-223.5 -33q-12 0 -55 -2h-72q-293 0 -311 160z" />
<glyph unicode="." horiz-adv-x="532" d="M76 182q0 174 200 162q195 -10 195 -174q0 -78 -55.5 -124t-139.5 -46q-201 0 -200 182z" />
<glyph unicode="/" horiz-adv-x="847" d="M74 127q0 18 6 39q63 233 162 522q143 412 243 563q27 41 150 68q57 0 104 -33q53 -39 54 -94q0 -27 -15 -55q-51 -113 -229 -600l-90 -250q-80 -217 -99 -236q-51 -51 -122 -51q-49 0 -99 27q-66 35 -65 100z" />
<glyph unicode="0" horiz-adv-x="1179" d="M70 530q0 119 80 199q51 51 188 125q31 33 76 78q94 82 262 82q207 0 336 -158q115 -139 114 -313q0 -199 -135 -371q-152 -197 -377 -197q-205 0 -378 191q-166 180 -166 364zM389 459q0 -78 44 -134.5t97 -56.5q109 0 194 92.5t85 210.5q0 141 -25 148q-16 -2 -10 -2 h-15h-14q-98 0 -152 -66.5t-110 -66.5q-29 0 -49 10q-45 -20 -45 -135z" />
<glyph unicode="1" horiz-adv-x="765" d="M51 565q104 106 209 213q113 127 150 244q96 -6 192 -14q111 -27 111 -119q0 -49 -29 -127q-33 -90 -39 -123q-29 -168 -53 -569q-51 -70 -123 -70q-90 0 -150 74q-49 61 -49 125q0 45 15 92q-6 51 -6 102v15q-63 2 -127 59q-51 49 -101 98z" />
<glyph unicode="2" horiz-adv-x="1183" d="M78 154q0 78 149 178q137 86 277 172q150 98 149 170q0 49 -192 49q-18 0 -102.5 -34t-135.5 -34q-145 0 -145 152q0 100 117 160q100 51 221 51q174 0 350 -98q209 -117 209 -281q0 -145 -242 -354l133 2q59 0 156 -47q106 -51 106 -103q0 -63 -86 -106 q-66 -33 -114 -33q-111 0 -329 -9t-327 -9q-82 0 -138 52t-56 122z" />
<glyph unicode="3" horiz-adv-x="958" d="M76 227q0 37 84 107q135 -66 194 -70q68 -4 146 15q96 23 96 69q0 39 -82 39q-27 0 -73 -4t-56 -4q-135 0 -149 153q-2 14 -25 64q68 49 133.5 61.5t132.5 24.5q86 18 84 63q-2 6 -12 5q-18 -2 -23 -2q-39 6 -108 6q-29 0 -84 -19.5t-78 -19.5q-86 0 -135 55 q-41 47 -41 113q0 135 270 135q63 0 129 -6q86 -8 226 -84q164 -94 163 -187q0 -90 -98 -196q137 -121 137 -232q0 -145 -180 -247q-153 -91 -303 -91q-106 0 -217 66q-131 78 -131 186z" />
<glyph unicode="4" horiz-adv-x="950" d="M70 756q0 45 20 131q16 66 35 131h102q37 0 88 -35q39 -29 78 -57q27 -49 27 -107q0 -25 -8.5 -75t-5.5 -76q8 -45 24 -74q43 27 82 120t139 304h88q84 0 125 -62q31 -41 31 -86q0 -131 -27 -258q-43 -221 -49 -508q0 -49 -55 -79q-45 -25 -86 -25q-152 0 -152 170 q0 39 17 147q-61 -27 -86 -26q-180 0 -297 190q-90 150 -90 275z" />
<glyph unicode="5" horiz-adv-x="1048" d="M78 174v133q125 -2 211 -18q68 -12 98 -13q98 0 188 27q121 37 121 105q0 39 -75 47h-115q-78 0 -142.5 -31t-103.5 -31q-82 0 -131 68q-41 53 -41 108q0 41 31 122t28 132q-2 88 29 199h109h37q33 2 47 2q49 0 133 -10q92 -8 133 -10q125 -2 186 -15q49 -10 97 -45 q53 -41 53 -80q0 -49 -45 -94t-111 -45l-303 20q195 -25 322 -108q160 -102 159 -272q0 -172 -200 -289q-170 -100 -353 -101q-68 0 -211 70q-152 76 -151 129z" />
<glyph unicode="6" horiz-adv-x="909" d="M70 387q0 98 20 162q12 25 31 92q10 55 129 205q150 186 270 186q72 0 142 -80q59 -68 59 -100t-16 -55q-29 -14 -56 -29q2 0 10 4q-63 -35 -77 -49q-41 -37 -47 -41q82 -2 174 -47q84 -43 114 -123q23 -57 23 -160q0 -150 -148 -258q-129 -94 -268 -94q-205 0 -297 150 q-63 102 -63 237zM381 279q68 0 122 35.5t54 70.5t-25 35q-100 0 -122.5 -12.5t-22.5 -63.5q0 -43 4 -59q-4 0 -10 -6z" />
<glyph unicode="7" horiz-adv-x="1171" d="M74 887q29 43 180 88q131 39 192 39q231 0 365.5 -104.5t130.5 -286.5q20 2 29 2q61 0 105 -41t44 -92q0 -111 -188 -107q-66 0 -111 -80q-29 -66 -57 -129q-90 -176 -211 -176q-59 0 -96 49q-33 41 -33 98q0 31 53 105t47 106q-27 0 -74 -12t-69 -12q-59 0 -105.5 47 t-46.5 104q0 115 179 125q168 10 229 31q4 2 0 8q-4 8 -4 15q0 59 -123 59q-43 0 -130 -17.5t-132 -17.5q-59 0 -113 68q-47 59 -61 131z" />
<glyph unicode="8" horiz-adv-x="962" d="M78 319q-1 165 110 224q-70 90 -69 194q0 133 172 215q133 66 264 66q135 0 233 -70q111 -78 111 -205q0 -176 -72 -256l9 -8q55 -47 69 -96q10 -33 10 -119q0 -61 -98 -147q-59 -51 -182 -86q-109 -31 -195 -31q-156 0 -259 93t-103 226zM414 291q0 -8 18 -25l12 -6 q66 -12 103 25q10 8 17 13t7 30q0 20 -24.5 48.5t-44.5 26.5q-23 -4 -55.5 -41.5t-32.5 -70.5zM449 680q0 -25 18 -29q20 -2 50 13.5t38 37.5q16 39 8 54q-2 2 -7 -4.5t-7 -6.5q-27 0 -55 -14q-45 -25 -45 -51z" />
<glyph unicode="9" horiz-adv-x="1028" d="M78 623q0 143 211 270q188 115 340 115q84 0 198 -60q135 -70 136 -160q0 -10 -2 -22l6 -4q0 -55 -15.5 -105.5t-31.5 -99.5q-31 -102 -50 -258q-14 -129 -28 -260q-70 -39 -123 -39q-164 0 -164 174q0 29 16 139q-68 -14 -135 -6q-358 49 -358 316zM393 590q0 -6 13 -4 l18 4q147 0 180 55q21 37 41 80q-252 -31 -252 -135z" />
<glyph unicode=":" horiz-adv-x="491" d="M51 227q0 78 68 131q61 47 129 45q98 -6 153 -73q45 -55 45 -117q0 -57 -51 -111q-57 -61 -143 -61q-104 0 -160 63q-41 51 -41 123zM51 672q0 80 68 133q61 47 129 43q98 -4 153 -74q45 -53 45 -117q0 -55 -51 -108q-57 -62 -143 -62q-104 0 -160 64q-41 51 -41 121z " />
<glyph unicode=";" horiz-adv-x="557" d="M49 -63q-8 51 72 215q92 182 184 182q45 0 111 -39q78 -43 86 -94q10 -45 -88 -221q-107 -193 -191 -193q-63 0 -125 74q-43 53 -49 76zM109 666q0 82 69 137q61 49 129 45q98 -4 154 -76q43 -55 43 -121q0 -59 -49 -114q-60 -64 -144 -64q-106 0 -159 66q-43 53 -43 127 z" />
<glyph unicode="&#x3c;" horiz-adv-x="811" d="M51 512q-8 57 262 207q254 141 293 141q66 0 110 -41t44 -88q0 -74 -293 -213q293 -137 293 -199q0 -37 -31 -71q-39 -43 -102 -43q-61 0 -308 121q-260 129 -268 186z" />
<glyph unicode="=" horiz-adv-x="847" d="M78 336q-6 45 41 76q41 27 84 30q256 14 467 2q53 -4 88 -38q27 -27 33 -56l4 -28q-33 -29 -68 -58q8 4 35 8q-57 -39 -252 -39q-16 0 -72.5 -2t-89.5 -2q-258 0 -270 107zM78 651q-6 45 41 78q41 27 84 29q256 16 467 2q53 -2 88 -37q27 -27 33 -57l4 -27 q-33 -29 -68 -59q8 4 35 8q-57 -39 -252 -39q-16 0 -72.5 -2t-89.5 -2q-258 0 -270 106z" />
<glyph unicode="&#x3e;" horiz-adv-x="811" d="M51 319q0 61 293 199q-293 139 -293 213q0 47 44 88t108 41q39 0 295 -141q270 -150 262 -207q-10 -57 -268 -186q-249 -121 -310 -121q-63 0 -100 43q-31 35 -31 71z" />
<glyph unicode="?" horiz-adv-x="827" d="M51 842q-4 39 12.5 74.5t141.5 72.5q109 33 160 33q154 0 264 -61q147 -78 147 -240q0 -43 -2 -70q-8 -76 -57 -119q-23 -18 -90 -51q-53 -27 -64 -53q-45 -117 -176 -117q-100 0 -133 41q-25 31 -25 115q0 76 47 121q57 43 117 84q31 25 41 35q-20 18 -55 18 q-23 0 -71 -12.5t-75 -12.5q-94 0 -133 27t-49 115zM215 158q0 47 45 86q53 49 143 49q72 0 140.5 -53.5t68.5 -106.5q0 -55 -59.5 -93t-149.5 -38q-86 0 -141 57q-47 47 -47 99z" />
<glyph unicode="@" horiz-adv-x="1355" d="M51 557q0 174 201 328q193 147 387 147q662 0 661 -448q0 -39 -32 -117q-37 -84 -74 -113q-74 -55 -174 -55q-59 0 -139 68q2 2 6 4q-137 -82 -191 -84q-164 -6 -268 86q-92 82 -92 192q0 98 158 174q139 66 260 66q207 -1 262 -148q8 94 -125 146q-98 39 -195 39 q-117 0 -260 -98.5t-143 -182.5q0 -98 135 -213t262 -115q43 0 78 17q43 12 135 41q14 4 31 4q55 0 101 -41t44 -90l-24 -60q-123 -61 -158 -75q-82 -29 -180 -29q-236 0 -451 175t-215 382zM641 539q78 -5 98 30l-2 2h-14q-4 0 -49 -2q-27 0 -27 -4t-6 -16q-4 -10 0 -10z " />
<glyph unicode="[" horiz-adv-x="667" d="M72 -61q8 82 10 163q0 55 -2 136q-2 88 -2 118q0 948 -2 1008q379 29 375 29q76 0 155 -66v-223q-80 -35 -129 -35q-27 0 -76 8h-8q-2 -158 4 -413q6 -326 6 -414l11 -2q10 0 33.5 8t37.5 8q35 0 123 -45l-6 -237q-23 -25 -164 -50q-121 -23 -176 -22q-49 0 -190 29z" />
<glyph unicode="\" horiz-adv-x="845" d="M76 1208q4 45 20 82q37 86 121 107q39 -8 70 -21q72 -27 90 -57q98 -166 241 -629q100 -322 164 -581q6 -23 6 -43q0 -74 -67 -113q-49 -31 -98 -31q-88 0 -138 86q-12 25 -59 162q-84 262 -166 524q-102 315 -184 514z" />
<glyph unicode="]" horiz-adv-x="673" d="M76 221q86 45 121 45q14 0 37.5 -8t33.5 -8h11q0 92 6 420q6 260 4 420l-8 -3q-49 -8 -76 -8q-49 0 -129 35v225q80 68 155 68q66 0 160 -10q166 -16 215 -21v-1016q0 -33 -4 -120q-2 -80 -2 -136q2 -82 10 -165l-57 -13q-90 -16 -133 -16q-55 0 -176 22q-141 25 -164 52 z" />
<glyph unicode="^" horiz-adv-x="741" d="M76 928q0 55 112 252q123 217 199 217q59 0 96 -47q12 -18 47 -95q41 -82 82 -163q61 -125 62 -152q0 -55 -33 -104q-37 -58 -94 -58q-76 0 -162 129q-33 -57 -77 -94t-70 -37q-49 0 -103 45q-59 49 -59 107z" />
<glyph unicode="_" horiz-adv-x="952" d="M78 72q-6 63 41 108q41 37 84 41t280 8q276 4 371 -4q53 -4 88 -53q27 -39 33 -82l4 -39l-70 -86q14 15 37 17q-31 -31 -84 -43q-8 0 -94 -11q-106 0 -516 -4q-66 -2 -118 45t-56 103z" />
<glyph unicode="{" horiz-adv-x="651" d="M76 651q0 47 56 124l56 77q0 29 -33.5 113t-33.5 137q0 121 127 213q109 80 205 80q70 0 100 -70q20 -61 39 -125q-41 -57 -68.5 -75.5t-93.5 -37.5q2 0 2 -14q0 -27 34 -114t34 -128q0 -47 -66 -129l-16 -24q39 -27 82 -66v-108q0 -37 -45 -139.5t-45 -108.5 q0 -17 2 -37q166 -23 166 -147q0 -92 -68 -127q-45 -23 -143 -23q-256 0 -256 299q0 106 55 275q-90 102 -90 155z" />
<glyph unicode="|" horiz-adv-x="688" d="M276 930q0 233 11 352q4 59 57 90q41 25 82 25q133 0 170 -64q29 -47 29 -211q0 -129 -4.5 -517t-4.5 -529q0 -61 -38 -105q-39 -49 -101 -49q-123 0 -164 66q-29 45 -28 164q0 74 -4.5 350t-4.5 428z" />
<glyph unicode="}" horiz-adv-x="636" d="M68 1198q20 63 38 127q33 70 103 70q96 0 205 -80q125 -94 125 -215q0 -51 -34 -135t-34 -113q0 2 56.5 -80t56.5 -121q0 -55 -90 -155q57 -168 57 -275q0 -299 -256 -299q-98 0 -143 23q-70 35 -70 127q0 129 168 147q2 20 2 37q0 6 -45 108.5t-45 139.5v108 q41 39 82 66l-19 22q-63 84 -63 129q0 43 33.5 130.5t33.5 113.5q0 20 -14 23q-35 4 -41 6q-51 20 -106 96z" />
<glyph unicode="~" horiz-adv-x="1251" d="M78 606q0 139 86 297q104 193 250 193q158 0 282 -144q55 -72 111 -143q8 0 10 7t2 24q-2 16 0 24q16 82 33 166q23 45 162 62q53 -10 115.5 -75t62.5 -112q0 -49 -18 -110q-104 -340 -343 -340q-102 0 -208 80q-64 48 -164 163q-35 -121 -53 -151q-45 -74 -140 -74 q-41 0 -106.5 29.5t-77.5 62.5q-4 14 -4 41z" />
<glyph unicode="&#xad;" d="M51 506q-6 61 48.5 116.5t117.5 59.5q229 16 418 4q86 -6 127 -70q29 -45 45 -151q-35 -31 -53 -33q4 -18 -41.5 -51t-223.5 -33q-12 0 -55 -2h-72q-293 0 -311 160z" />
<glyph unicode="&#x2000;" horiz-adv-x="703" />
<glyph unicode="&#x2001;" horiz-adv-x="1407" />
<glyph unicode="&#x2002;" horiz-adv-x="703" />
<glyph unicode="&#x2003;" horiz-adv-x="1407" />
<glyph unicode="&#x2004;" horiz-adv-x="469" />
<glyph unicode="&#x2005;" horiz-adv-x="351" />
<glyph unicode="&#x2006;" horiz-adv-x="234" />
<glyph unicode="&#x2007;" horiz-adv-x="234" />
<glyph unicode="&#x2008;" horiz-adv-x="175" />
<glyph unicode="&#x2009;" horiz-adv-x="281" />
<glyph unicode="&#x200a;" horiz-adv-x="78" />
<glyph unicode="&#x2010;" d="M51 506q-6 61 48.5 116.5t117.5 59.5q229 16 418 4q86 -6 127 -70q29 -45 45 -151q-35 -31 -53 -33q4 -18 -41.5 -51t-223.5 -33q-12 0 -55 -2h-72q-293 0 -311 160z" />
<glyph unicode="&#x2011;" d="M51 506q-6 61 48.5 116.5t117.5 59.5q229 16 418 4q86 -6 127 -70q29 -45 45 -151q-35 -31 -53 -33q4 -18 -41.5 -51t-223.5 -33q-12 0 -55 -2h-72q-293 0 -311 160z" />
<glyph unicode="&#x2012;" d="M51 506q-6 61 48.5 116.5t117.5 59.5q229 16 418 4q86 -6 127 -70q29 -45 45 -151q-35 -31 -53 -33q4 -18 -41.5 -51t-223.5 -33q-12 0 -55 -2h-72q-293 0 -311 160z" />
<glyph unicode="&#x2013;" horiz-adv-x="1131" d="M51 506q-8 61 65.5 116.5t158.5 59.5q310 16 566 4q117 -6 172 -70q39 -45 61 -151q-47 -31 -72 -33q6 -18 -55.5 -51t-302.5 -33q-17 0 -75 -2h-97q-397 0 -421 160z" />
<glyph unicode="&#x2014;" horiz-adv-x="2154" d="M52 506q-17 61 130.5 116.5t318.5 59.5q620 16 1131 4q233 -6 344 -70q79 -45 122 -151q-95 -31 -143 -33q10 -18 -113 -51t-605 -33q-32 0 -149 -2h-195q-793 0 -841 160z" />
<glyph unicode="&#x202f;" horiz-adv-x="281" />
<glyph unicode="&#x205f;" horiz-adv-x="351" />
<glyph unicode="&#xe000;" horiz-adv-x="1024" d="M0 0z" />
</font>
</defs>
</svg>
